<svg xmlns="http://www.w3.org/2000/svg" height="9000" width="8500" viewBox="-125.988 -169.801 1091.896 1018.806">
<path d="M813.343 611.49c-.714 3.598-1.942 6.734-3.675 9.426-1.741 2.696-4.017 4.89-6.83 6.559-2.807 1.678-6.311 2.518-10.5 2.518-4.071 0-7.543-.84-10.414-2.518-2.877-1.67-5.176-3.863-6.919-6.559-1.726-2.692-2.989-5.828-3.77-9.427a51.613 51.613 0 01-1.163-10.945c0-3.844.365-7.555 1.08-11.139.716-3.594 1.947-6.764 3.68-9.528 1.732-2.746 4.012-4.994 6.825-6.726 2.803-1.738 6.307-2.612 10.502-2.612 4.069 0 7.506.874 10.316 2.612 2.821 1.732 5.118 4 6.918 6.818 1.802 2.816 3.088 6.02 3.863 9.61a51.146 51.146 0 011.167 10.965c0 3.699-.363 7.357-1.08 10.945m24.061-29.184c-1.677-6.042-4.25-11.341-7.724-15.897-3.472-4.545-7.832-8.199-13.1-10.952-5.272-2.76-11.563-4.13-18.863-4.13-5.738 0-11.009 1.133-15.793 3.413-4.79 2.273-8.74 5.926-11.852 10.954h-.352v-11.857h-24.244v125.368h25.492v-44.001h.36c3.112 4.553 7.101 7.992 11.943 10.32 4.844 2.333 10.148 3.506 15.894 3.506 6.816 0 12.771-1.322 17.864-3.953 5.082-2.632 9.339-6.17 12.744-10.6 3.419-4.432 5.954-9.51 7.631-15.261 1.684-5.748 2.516-11.738 2.516-17.962 0-6.585-.832-12.9-2.516-18.948M711.728 611.49c-.725 3.599-1.956 6.735-3.685 9.427-1.736 2.696-4.012 4.89-6.834 6.559-2.804 1.678-6.31 2.518-10.497 2.518-4.075 0-7.532-.84-10.407-2.518-2.876-1.67-5.177-3.863-6.916-6.559-1.736-2.692-2.99-5.828-3.772-9.427a51.438 51.438 0 01-1.16-10.945c0-3.844.348-7.555 1.066-11.139.728-3.594 1.948-6.764 3.689-9.528 1.724-2.746 4.005-4.994 6.827-6.726 2.808-1.738 6.298-2.612 10.496-2.612 4.064 0 7.518.874 10.324 2.612a21.36 21.36 0 016.913 6.818c1.79 2.816 3.077 6.02 3.857 9.61a51.312 51.312 0 011.162 10.965c0 3.699-.348 7.357-1.063 10.945m16.332-45.081c-3.467-4.545-7.841-8.199-13.11-10.952-5.269-2.76-11.547-4.13-18.845-4.13-5.753 0-11.014 1.133-15.8 3.413-4.8 2.273-8.74 5.926-11.848 10.954h-.366v-11.857h-24.247v125.368h25.512v-44.001h.347c3.108 4.553 7.1 7.992 11.95 10.32 4.836 2.333 10.136 3.506 15.884 3.506 6.827 0 12.778-1.322 17.863-3.953 5.09-2.632 9.339-6.17 12.75-10.6 3.415-4.432 5.947-9.51 7.637-15.261 1.664-5.748 2.51-11.738 2.51-17.962 0-6.585-.846-12.9-2.51-18.948-1.69-6.042-4.256-11.341-7.727-15.897m-167.695 30.715l16.698-47.055h.357l16.163 47.055zm2.69-78.667L514.58 646.689h28.368L553 618.135h47.945l9.687 28.554h29.274L591.97 518.456zm-50.634 87.557a23.116 23.116 0 00-6.642-7.368c-2.751-1.969-5.902-3.56-9.424-4.761-3.536-1.19-7.156-2.2-10.868-3.044a413.577 413.577 0 00-10.587-2.34c-3.472-.719-6.56-1.527-9.255-2.421-2.69-.903-4.868-2.062-6.545-3.51-1.681-1.433-2.51-3.285-2.51-5.561 0-1.919.466-3.444 1.43-4.584a9.606 9.606 0 013.504-2.608c1.379-.59 2.895-.98 4.575-1.165a45.66 45.66 0 014.668-.263c4.552 0 8.501.865 11.86 2.603 3.341 1.734 5.202 5.058 5.556 9.964h24.238c-.478-5.743-1.942-10.498-4.398-14.279-2.45-3.77-5.538-6.795-9.244-9.068-3.704-2.273-7.928-3.887-12.663-4.847-4.728-.957-9.603-1.436-14.621-1.436-5.038 0-9.948.455-14.723 1.343-4.799.9-9.107 2.463-12.932 4.673-3.835 2.215-6.912 5.236-9.25 9.067-2.338 3.832-3.505 8.745-3.505 14.728 0 4.072.844 7.519 2.523 10.33 1.66 2.82 3.887 5.147 6.63 7.006 2.76 1.852 5.905 3.357 9.434 4.484 3.53 1.15 7.152 2.128 10.856 2.972 9.107 1.916 16.201 3.825 21.284 5.748 5.088 1.913 7.63 4.788 7.63 8.619 0 2.276-.534 4.152-1.613 5.65a12.248 12.248 0 01-4.037 3.598c-1.627.897-3.424 1.558-5.388 1.973-1.977.423-3.868.635-5.661.635a29.15 29.15 0 01-7.266-.903c-2.338-.596-4.402-1.53-6.197-2.788a14.843 14.843 0 01-4.404-4.848c-1.128-1.973-1.71-4.335-1.71-7.09h-24.235c.245 6.225 1.646 11.402 4.228 15.533 2.562 4.129 5.852 7.453 9.868 9.973 4.009 2.51 8.593 4.308 13.745 5.388a76.943 76.943 0 0015.785 1.613 79.72 79.72 0 0015.539-1.518c5.085-1.026 9.605-2.791 13.556-5.311 3.959-2.51 7.147-5.828 9.608-9.965 2.447-4.135 3.672-9.251 3.672-15.36 0-4.314-.836-7.928-2.51-10.862m-105.389-80.012h-25.501v27.835h-15.435V570.9h15.435v54.781c0 4.673.787 8.443 2.337 11.312 1.559 2.87 3.68 5.099 6.371 6.648 2.695 1.559 5.81 2.603 9.341 3.141 3.522.536 7.278.808 11.219.808 2.524 0 5.09-.062 7.728-.173 2.627-.123 5.019-.353 7.179-.727v-19.758c-1.202.245-2.456.43-3.778.544a44.87 44.87 0 01-4.126.185c-4.306 0-7.182-.73-8.622-2.163-1.429-1.433-2.148-4.306-2.148-8.622V570.9h18.674v-17.063h-18.674zm-73.077 84.763c0 1.448-.145 3.364-.45 5.757-.297 2.398-1.106 4.755-2.42 7.091-1.32 2.333-3.36 4.35-6.106 6.015-2.752 1.686-6.641 2.524-11.675 2.524a31.73 31.73 0 01-5.921-.547c-1.919-.356-3.592-.99-5.028-1.885-1.435-.899-2.575-2.123-3.413-3.68-.834-1.556-1.258-3.468-1.258-5.744 0-2.394.424-4.378 1.258-5.931a11.668 11.668 0 013.326-3.861c1.37-1.015 2.99-1.82 4.844-2.428a46.856 46.856 0 015.658-1.435 112.24 112.24 0 016.1-.899 75.301 75.301 0 005.836-.894 41.23 41.23 0 005.212-1.352c1.616-.539 2.956-1.28 4.037-2.242zm25.495 15.275v-48.311c0-5.633-1.251-10.153-3.774-13.561-2.508-3.414-5.741-6.076-9.686-7.992-3.956-1.915-8.328-3.204-13.116-3.862a104.324 104.324 0 00-14.179-.988c-5.144 0-10.268.506-15.348 1.531-5.1 1.013-9.668 2.723-13.741 5.113a30.429 30.429 0 00-10.05 9.522c-2.641 3.946-4.136 8.918-4.493 14.905h25.492c.479-5.03 2.163-8.623 5.036-10.78 2.872-2.152 6.816-3.228 11.85-3.228 2.27 0 4.391.153 6.371.448 1.971.303 3.71.896 5.208 1.793 1.498.903 2.694 2.154 3.587 3.775.897 1.617 1.348 3.804 1.348 6.55.119 2.645-.663 4.637-2.33 6.02-1.682 1.38-3.953 2.431-6.826 3.14-2.873.726-6.165 1.267-9.879 1.614-3.712.365-7.48.855-11.305 1.448a105.987 105.987 0 00-11.399 2.42c-3.772 1.017-7.132 2.55-10.061 4.575-2.935 2.044-5.327 4.764-7.188 8.18-1.852 3.413-2.777 7.757-2.777 13.02 0 4.79.806 8.917 2.422 12.386 1.615 3.483 3.859 6.347 6.736 8.623 2.874 2.277 6.223 3.956 10.052 5.036 3.826 1.075 7.959 1.613 12.391 1.613a57.88 57.88 0 0016.872-2.508c5.51-1.69 10.301-4.609 14.37-8.81.12 1.556.33 3.089.626 4.58.299 1.496.69 2.972 1.17 4.398h25.858c-1.197-1.905-2.041-4.777-2.515-8.62-.484-3.824-.722-7.832-.722-12.03m-105.038-64.212c-2.51-3.292-5.953-5.866-10.316-7.723-4.374-1.848-9.97-2.779-16.789-2.779-4.79 0-9.696 1.23-14.73 3.683-5.023 2.453-9.155 6.376-12.385 11.767h-.54v-48.319h-25.496V646.69h25.496v-48.672c0-9.452 1.555-16.249 4.671-20.381 3.11-4.13 8.136-6.199 15.081-6.199 6.103 0 10.352 1.888 12.747 5.663 2.395 3.77 3.592 9.49 3.592 17.15v52.44h25.497V589.58c0-5.742-.514-10.98-1.526-15.722-1.02-4.718-2.784-8.733-5.302-12.03m-134.658 44.997h-.355l-21.904-88.368H71.1l-22.267 87.285h-.357l-20.29-87.285H0L33.933 646.69h28.552l21.362-87.286h.36l21.724 87.286h28.012l34.473-128.233h-27.65zm305.552-321.572c12.029 5.195 21.421 8.295 28.744 10.62 12.078 3.835 23.07 3.296 31.757 1.997 9.688-1.448 29.83-12.197 34.033-23.976 4.2-11.777 4.2-21.872 2.94-23.977-1.26-2.101-4.622-3.364-9.664-5.885-5.041-2.523-29.83-14.724-34.452-16.406-4.621-1.681-7.982-2.522-11.344 2.526-3.361 5.046-13.024 16.401-15.965 19.765-2.94 3.368-5.881 3.788-10.923 1.265-5.042-2.522-21.289-7.85-40.548-25.028-14.988-13.366-25.106-29.88-28.048-34.924-2.941-5.05-.313-7.78 2.211-10.292 2.268-2.258 5.043-5.89 7.563-8.832 2.521-2.948 3.362-5.05 5.042-8.413 1.68-3.364.84-6.31-.42-8.833-1.26-2.524-11.344-27.342-15.546-37.435-4.092-9.833-8.25-8.501-11.344-8.657-2.938-.147-6.303-.176-9.663-.176-3.361 0-8.824 1.261-13.445 6.306-4.622 5.05-17.647 17.246-17.647 42.063 0 24.817 18.067 48.795 20.588 52.157 2.521 3.364 35.552 54.295 86.13 76.135M421.189 34.08c44.797.017 86.908 17.487 118.573 49.187 31.666 31.701 49.095 73.842 49.078 118.656-.038 92.481-75.276 167.716-167.718 167.716h-.068c-30.096-.01-59.613-8.094-85.364-23.375l-6.124-3.636-63.478 16.653 16.944-61.893-3.988-6.344c-16.79-26.703-25.656-57.567-25.643-89.256.037-92.475 75.276-167.708
 167.788-167.708m-96.58 345.081c29.473 16.074 62.659 24.547 96.432 24.559h.081c111.212 0 201.742-90.527 201.787-201.783.021-53.917-20.948-104.617-59.047-142.758C525.764 21.036 475.1.023 421.12 0 309.897 0 219.376 90.519 219.33 201.773c-.014 35.567 9.279 70.282 26.936 100.88L217.64 407.22z" fill="#455a64"/></svg>